<?xml version="1.0" encoding="utf-8"?>
<!-- Generator: Adobe Illustrator 21.0.2, SVG Export Plug-In . SVG Version: 6.00 Build 0)  -->
<svg version="1.1" id="레이어_1" xmlns="http://www.w3.org/2000/svg" xmlns:xlink="http://www.w3.org/1999/xlink" x="0px"
	 y="0px" viewBox="0 0 98 97" style="enable-background:new 0 0 98 97;" xml:space="preserve">
<style type="text/css">
	.st0{fill:#CCCCCC;}
	.st1{clip-path:url(#SVGID_2_);}
	.st2{fill:none;stroke:#CCCCCC;stroke-width:56;stroke-miterlimit:10;}
</style>
<title>자산 4</title>
<g id="레이어_2">
	<g id="레이어_1-2">
		<path class="st0" d="M73.4,41.2c0-4.1-3.3-7.4-7.3-7.4c-1.9,0-3.8,0.8-5.2,2.1l0,0L47.6,49.2l-6.1-6.1c-2.8-2.9-7.5-3-10.4-0.2
			c-2.9,2.8-3,7.5-0.2,10.4l0,0l11.5,11.5l0,0c2.8,2.8,7.3,2.9,10.2,0.2l0,0l0.2-0.2l0.1-0.1l18.4-18.3C72.7,45,73.5,43.1,73.4,41.2
			z"/>
		<g>
			<defs>
				<path id="SVGID_1_" d="M90.5,41h-6.8c-3.9,0-7.1,3.2-7.1,7.2c0,0.8,0.1,1.5,0.4,2.2c0.9,2.6,3.1,4.4,5.8,4.7
					C79,73.5,61,85.3,42.6,81.5S12.4,59.7,16.3,41.3C19.1,27.6,30,17.1,43.7,14.7c3.8-0.8,6.2-4.5,5.5-8.3c-0.7-3.6-4.2-6.1-7.8-5.5
					C15.2,5.4-2.3,30.3,2.2,56.4S31.6,100,57.7,95.5c23-4,39.8-24,39.8-47.3C97.5,44.3,94.4,41.1,90.5,41z"/>
			</defs>
			<clipPath id="SVGID_2_">
				<use xlink:href="#SVGID_1_"  style="overflow:visible;"/>
			</clipPath>
			<g class="st1">
				<polyline class="st2" points="98,69 28,69 28,0 				"/>
			</g>
		</g>
	</g>
</g>
</svg>
