<?xml version="1.0" encoding="utf-8"?>
<!-- Generator: Adobe Illustrator 21.0.2, SVG Export Plug-In . SVG Version: 6.00 Build 0)  -->
<svg version="1.1" id="레이어_1" xmlns="http://www.w3.org/2000/svg" xmlns:xlink="http://www.w3.org/1999/xlink" x="0px"
	 y="0px" viewBox="0 0 285.5 66.6" style="enable-background:new 0 0 285.5 66.6;" xml:space="preserve">
<style type="text/css">
	.st0{fill:#00395B;}
	.st1{fill:url(#SVGID_1_);}
	.st2{clip-path:url(#SVGID_3_);fill:none;stroke:url(#SVGID_4_);stroke-width:56;stroke-miterlimit:10;}
</style>
<g>
	<g>
		<path class="st0" d="M171.3,22.8c-0.4,0-0.6,0.3-0.6,0.6v13.8c0,2.2-1.8,4-4,4c-2.2,0-4-1.8-4-4v-5.4c0-0.4-0.3-0.6-0.6-0.6
			s-0.6,0.3-0.6,0.6v5.4c0,2.2-1.8,4-4,4c-2.2,0-4-1.8-4-4V23.5c0-0.4-0.3-0.6-0.6-0.6c-0.4,0-0.6,0.3-0.6,0.6v13.7
			c0,2.9,2.4,5.2,5.2,5.2c2,0,3.7-1.1,4.6-2.7c0.9,1.6,2.6,2.7,4.6,2.7c2.9,0,5.2-2.4,5.2-5.2V23.4C172,23,171.7,22.8,171.3,22.8z"
			/>
		<path class="st0" d="M125.7,22.5c-5.6,0-10.2,4.6-10.2,10.2v9.5c0,0.4,0.3,0.7,0.7,0.7c0.4,0,0.7-0.3,0.7-0.7v-9.5
			c0-4.9,4-8.8,8.8-8.8c0.4,0,0.7-0.3,0.7-0.7C126.3,22.8,126,22.5,125.7,22.5z"/>
		<path class="st0" d="M137.7,22.5c-5.6,0-10.1,4.5-10.1,10.1s4.6,10.1,10.1,10.1c5.6,0,10.1-4.6,10.1-10.1S143.3,22.5,137.7,22.5z
			 M137.7,41.4c-4.9,0-8.8-4-8.8-8.8c0-4.9,4-8.8,8.8-8.8c4.9,0,8.8,4,8.8,8.8C146.5,37.5,142.5,41.4,137.7,41.4z"/>
		<path class="st0" d="M191.9,23.8c3.4,0,6.4,1.9,7.9,4.9c0.2,0.3,0.6,0.5,0.9,0.3c0.3-0.2,0.5-0.6,0.3-0.9
			c-1.7-3.5-5.2-5.6-9.1-5.6c-5.6,0-10.1,4.6-10.1,10.1s4.6,10.1,10.1,10.1c3.9,0,7.3-2.1,9.1-5.6c0.2-0.3,0-0.7-0.3-0.9
			c-0.3-0.2-0.7,0-0.9,0.3c-1.5,3-4.5,4.9-7.9,4.9c-4.9,0-8.8-4-8.8-8.8C183.1,27.7,187,23.8,191.9,23.8z"/>
		<path class="st0" d="M258.7,23.8c3.4,0,6.4,1.9,7.9,4.9c0.2,0.3,0.6,0.5,0.9,0.3c0.3-0.2,0.5-0.6,0.3-0.9
			c-1.7-3.5-5.2-5.6-9.1-5.6c-5.6,0-10.1,4.6-10.1,10.1s4.6,10.1,10.1,10.1c3.9,0,7.3-2.1,9.1-5.6c0.2-0.3,0-0.7-0.3-0.9
			c-0.3-0.2-0.7,0-0.9,0.3c-1.5,3-4.5,4.9-7.9,4.9c-4.9,0-8.8-4-8.8-8.8C249.9,27.7,253.8,23.8,258.7,23.8z"/>
		<path class="st0" d="M212.9,22.5c-3.1,0-5.6,1.6-7.1,4.3V11.2c0-0.4-0.3-0.7-0.7-0.7s-0.7,0.3-0.7,0.7v21.3v9.6
			c0,0.4,0.3,0.7,0.7,0.7s0.7-0.3,0.7-0.7v-9.6c0-2.4,0.7-4.7,1.9-6.2c1.3-1.6,3.1-2.5,5.1-2.5c4.2,0,7.1,3.6,7.1,8.8v9.5
			c0,0.4,0.3,0.7,0.7,0.7c0.4,0,0.7-0.3,0.7-0.7v-9.5c0-2.7-0.8-5.3-2.2-7.1C217.5,23.5,215.4,22.5,212.9,22.5z"/>
		<path class="st0" d="M241.7,32l-11.5,0c-0.4,0-0.7,0.3-0.7,0.7c0,0.4,0.3,0.7,0.7,0.7h0l11.5,0c1.7,0,3-1.4,3-3
			c0-0.2-0.1-0.5-0.2-1c0-0.1,0-0.1,0-0.2c0,0,0-0.1,0-0.1c-1.5-3.9-5.3-6.5-9.5-6.5c-5.6,0-10.2,4.6-10.2,10.2
			c0,5.6,4.6,10.2,10.2,10.2c3.9,0,7.4-2.2,9.1-5.6c0.2-0.3,0-0.7-0.3-0.9c-0.3-0.2-0.7,0-0.9,0.3c-1.5,3-4.5,4.9-7.9,4.9
			c-4.9,0-8.8-4-8.8-8.8c0-4.9,4-8.8,8.8-8.8c3.6,0,6.9,2.3,8.3,5.7c0,0,0,0.1,0,0.1c0,0.2,0.1,0.6,0.2,0.7
			C243.4,31.2,242.6,32,241.7,32z"/>
		<path class="st0" d="M285.3,41.5L274,31.3l8.9-7.8c0.3-0.2,0.3-0.7,0.1-0.9c-0.2-0.3-0.7-0.3-0.9-0.1l-8.4,7.4V11.1
			c0-0.4-0.3-0.7-0.7-0.7c-0.4,0-0.7,0.3-0.7,0.7V42c0,0.4,0.3,0.7,0.7,0.7c0.4,0,0.7-0.3,0.7-0.7v-9.2l10.8,9.7
			c0.1,0.1,0.3,0.2,0.4,0.2c0.2,0,0.4-0.1,0.5-0.2C285.6,42.2,285.6,41.8,285.3,41.5z"/>
		<path class="st0" d="M101.9,22.5c-5.6,0-10.1,4.6-10.1,10.1c0,5.6,4.6,10.1,10.1,10.1c3.8,0,7.1-2.1,8.8-5.2l0,7.6
			c0,4.9-4,9.3-8.9,9.3c-4.9,0-8.8-4-8.8-8.8c0-0.4-0.3-0.7-0.7-0.7c-0.4,0-0.7,0.3-0.7,0.7c0,5.6,4.6,10.1,10.1,10.1
			c5.5,0,10-4.4,10.2-9.8l0-13.4C112,27,107.5,22.5,101.9,22.5z M110.7,32.6c0,4.9-4,8.8-8.8,8.8c-4.9,0-8.8-4-8.8-8.8
			s4-8.8,8.8-8.8C106.7,23.8,110.7,27.7,110.7,32.6C110.7,32.6,110.7,32.6,110.7,32.6z"/>
	</g>
	<g>
		<linearGradient id="SVGID_1_" gradientUnits="userSpaceOnUse" x1="19.0465" y1="34.6122" x2="50.2125" y2="34.6122">
			<stop  offset="0" style="stop-color:#0096FF"/>
			<stop  offset="1" style="stop-color:#00E4C7"/>
		</linearGradient>
		<path class="st1" d="M50.2,28.2c0-2.8-2.3-5.1-5.1-5.1c-1.4,0-2.7,0.6-3.6,1.5l0,0l-9.3,9.3l-4.3-4.3c-0.9-1-2.3-1.6-3.7-1.6
			c-2.8,0-5.1,2.3-5.1,5.1c0,1.4,0.6,2.7,1.5,3.6l0,0l8,8l0,0c0.9,0.9,2.2,1.5,3.7,1.5c1.3,0,2.6-0.5,3.5-1.4l0,0l0.1-0.1
			c0,0,0,0,0.1-0.1l12.8-12.8C49.6,30.9,50.2,29.6,50.2,28.2z"/>
		<g>
			<defs>
				<path id="SVGID_2_" d="M62.1,28.1h-4.8c-3.3,0-5.8,3.1-4.7,6.6c0.6,1.8,2.2,3.1,4.1,3.3c-2.2,10.8-11.8,18.9-23.2,18.9
					c-13.1,0-23.7-10.6-23.7-23.7c0-11.6,8.3-21.4,19.7-23.4c2.7-0.5,4.4-3,4-5.6c-0.5-2.7-3-4.4-5.6-4C11.7,2.8,0,16.7,0,33.1
					c0,18.5,15,33.5,33.5,33.5S67,51.5,67,33.1C67,30.4,64.8,28.1,62.1,28.1z"/>
			</defs>
			<clipPath id="SVGID_3_">
				<use xlink:href="#SVGID_2_"  style="overflow:visible;"/>
			</clipPath>
			<linearGradient id="SVGID_4_" gradientUnits="userSpaceOnUse" x1="-9.5052" y1="37.5178" x2="67.349" y2="37.5178">
				<stop  offset="0" style="stop-color:#0096FF"/>
				<stop  offset="1" style="stop-color:#00E4C7"/>
			</linearGradient>
			<polyline class="st2" points="67.3,47.6 18.5,47.6 18.5,-0.6 			"/>
		</g>
	</g>
</g>
</svg>
