<svg xmlns="http://www.w3.org/2000/svg" xmlns:xlink="http://www.w3.org/1999/xlink" viewBox="0 0 98 97"><defs><style>.cls-1,.cls-4{fill:none;}.cls-2{fill:url(#무제_그라디언트_11);}.cls-3{clip-path:url(#clip-path);}.cls-4{stroke-miterlimit:10;stroke-width:56px;stroke:url(#무제_그라디언트_11-2);}</style><linearGradient id="무제_그라디언트_11" x1="28.79" y1="50.4" x2="73.45" y2="50.4" gradientUnits="userSpaceOnUse"><stop offset="0" stop-color="#0096ff"/><stop offset="1" stop-color="#00e4c7"/></linearGradient><clipPath id="clip-path"><path class="cls-1" d="M90.5,41H83.67A7.11,7.11,0,0,0,77,50.41a7,7,0,0,0,5.84,4.7A34,34,0,1,1,43.69,14.7,7,7,0,0,0,41.31.91,48,48,0,1,0,97.5,48.2,7.17,7.17,0,0,0,90.5,41Z"/></clipPath><linearGradient id="무제_그라디언트_11-2" x1="0" y1="48.5" x2="98" y2="48.5" xlink:href="#무제_그라디언트_11"/></defs><title>자산 4</title><g id="레이어_2" data-name="레이어 2"><g id="레이어_1-2" data-name="레이어 1"><path class="cls-2" d="M73.45,41.16a7.35,7.35,0,0,0-12.52-5.23l0,0L47.59,49.22l-6.11-6.11a7.35,7.35,0,1,0-10.59,10.2l0,0L42.35,64.82l0,0A7.35,7.35,0,0,0,52.59,65h0l.18-.18.08-.08L71.25,46.4A7.33,7.33,0,0,0,73.45,41.16Z"/><g class="cls-3"><polyline class="cls-4" points="98 69 28 69 28 0"/></g></g></g></svg>